<svg xmlns="http://www.w3.org/2000/svg" xmlns:xlink="http://www.w3.org/1999/xlink" width="138.535" height="44.891" viewBox="0 0 138.535 44.891">
  <defs>
    <clipPath id="clip-ENBUSINESS_SERVICE_MONOCROMATICO">
      <rect width="138.535" height="44.891"/>
    </clipPath>
  </defs>
  <g id="ENBUSINESS_SERVICE_MONOCROMATICO" clip-path="url(#clip-ENBUSINESS_SERVICE_MONOCROMATICO)">
    <g id="Grupo_4" data-name="Grupo 4" transform="translate(-143.94 153.04)">
      <path id="Caminho_15" data-name="Caminho 15" d="M259.96,81.83a1.543,1.543,0,0,0,.7-.12.428.428,0,0,0,.23-.4.524.524,0,0,0-.22-.45,3.325,3.325,0,0,0-.74-.37c-.17-.07-.33-.13-.48-.2a1.845,1.845,0,0,1-.39-.24,1.128,1.128,0,0,1-.27-.34,1.045,1.045,0,0,1-.1-.49,1.115,1.115,0,0,1,.42-.91,1.83,1.83,0,0,1,1.15-.34c.12,0,.24.01.37.02a3.072,3.072,0,0,1,.34.05c.1.02.2.04.28.06a1.45,1.45,0,0,1,.19.06l-.14.66a2.279,2.279,0,0,0-.39-.14,2.408,2.408,0,0,0-.64-.07,1.1,1.1,0,0,0-.56.13.43.43,0,0,0-.24.4.655.655,0,0,0,.05.25.51.51,0,0,0,.17.19,1.215,1.215,0,0,0,.28.16c.11.05.24.1.4.16.2.08.39.15.55.23a1.515,1.515,0,0,1,.41.26,1.04,1.04,0,0,1,.26.36,1.311,1.311,0,0,1,.09.52,1.024,1.024,0,0,1-.44.9,2.267,2.267,0,0,1-1.27.31,3.1,3.1,0,0,1-.9-.1,2.612,2.612,0,0,1-.44-.15l.14-.66q.135.045.42.15a2.287,2.287,0,0,0,.77.11m-2.73-2.02a1.263,1.263,0,0,0-.26-.86.917.917,0,0,0-.74-.34,1,1,0,0,0-.81.37,1.3,1.3,0,0,0-.22.38,1.654,1.654,0,0,0-.1.44h2.13Zm-2.96.42a2.792,2.792,0,0,1,.17-1,2.193,2.193,0,0,1,.44-.71,1.662,1.662,0,0,1,.63-.42,2.057,2.057,0,0,1,.73-.14,1.676,1.676,0,0,1,1.34.54,2.493,2.493,0,0,1,.46,1.66v.13a.756.756,0,0,1-.01.15h-2.95a1.536,1.536,0,0,0,.39,1.02,1.439,1.439,0,0,0,1.06.35,2.631,2.631,0,0,0,.68-.07,2.02,2.02,0,0,0,.42-.14l.11.65a2.513,2.513,0,0,1-.49.16,3.285,3.285,0,0,1-.8.08,2.642,2.642,0,0,1-.98-.17,1.781,1.781,0,0,1-1.07-1.18A2.944,2.944,0,0,1,254.27,80.23Zm-1.55,2.25a2.4,2.4,0,0,1-.92-.17,1.957,1.957,0,0,1-.66-.46,1.984,1.984,0,0,1-.4-.71,2.9,2.9,0,0,1-.13-.91,2.632,2.632,0,0,1,.15-.91,2.116,2.116,0,0,1,.41-.72,1.812,1.812,0,0,1,.65-.47,2.163,2.163,0,0,1,.86-.17,3.784,3.784,0,0,1,.58.05,2.751,2.751,0,0,1,.56.16l-.17.66a1.565,1.565,0,0,0-.4-.13,2.461,2.461,0,0,0-.49-.05,1.232,1.232,0,0,0-.99.41,1.8,1.8,0,0,0-.34,1.19,2.547,2.547,0,0,0,.08.64,1.384,1.384,0,0,0,.25.5,1.116,1.116,0,0,0,.44.32,1.764,1.764,0,0,0,.65.11,2.466,2.466,0,0,0,.56-.06,2.317,2.317,0,0,0,.39-.12l.11.65a.9.9,0,0,1-.19.08,1.907,1.907,0,0,1-.28.07,3.074,3.074,0,0,1-.34.05A2.554,2.554,0,0,0,252.72,82.48Zm-3.41-5.19a.483.483,0,0,1-.35-.14.468.468,0,0,1-.15-.37.482.482,0,0,1,.15-.37.5.5,0,0,1,.35-.14.483.483,0,0,1,.35.14.468.468,0,0,1,.15.37.5.5,0,0,1-.5.51Zm.39,5.09h-.77V78.07h.77Zm-1.37-4.31a22.51,22.51,0,0,1-.76,2.32c-.29.74-.57,1.4-.84,1.99h-.7c-.27-.59-.55-1.25-.84-1.99a23.333,23.333,0,0,1-.76-2.32h.83q.105.4.24.87c.09.31.19.61.29.91s.21.59.31.88.2.53.3.76c.09-.22.19-.47.3-.76s.21-.57.31-.88.2-.61.29-.91.17-.6.24-.87Zm-4.79-.09a1.929,1.929,0,0,1,.23.01l.25.03c.08.01.16.03.23.04a.754.754,0,0,1,.15.04l-.13.67a2.828,2.828,0,0,0-.3-.08,2.609,2.609,0,0,0-.54-.05,2.1,2.1,0,0,0-.43.05l-.28.06v3.63h-.77V78.25a4.877,4.877,0,0,1,.68-.19A4.222,4.222,0,0,1,243.54,77.98Zm-3.32,1.83a1.263,1.263,0,0,0-.26-.86.917.917,0,0,0-.74-.34,1,1,0,0,0-.81.37,1.3,1.3,0,0,0-.22.38,1.654,1.654,0,0,0-.1.44h2.13Zm-2.96.42a2.792,2.792,0,0,1,.17-1,2.193,2.193,0,0,1,.44-.71,1.662,1.662,0,0,1,.63-.42,2.057,2.057,0,0,1,.73-.14,1.676,1.676,0,0,1,1.34.54,2.493,2.493,0,0,1,.46,1.66v.13a.757.757,0,0,1-.01.15h-2.95a1.536,1.536,0,0,0,.39,1.02,1.439,1.439,0,0,0,1.06.35,2.631,2.631,0,0,0,.68-.07,2.253,2.253,0,0,0,.42-.14l.11.65a2.513,2.513,0,0,1-.49.16,3.285,3.285,0,0,1-.8.08,2.551,2.551,0,0,1-.97-.17,1.781,1.781,0,0,1-1.07-1.18A2.673,2.673,0,0,1,237.26,80.23ZM235,81.83a1.543,1.543,0,0,0,.7-.12.428.428,0,0,0,.23-.4.524.524,0,0,0-.22-.45,3.325,3.325,0,0,0-.74-.37c-.17-.07-.32-.13-.48-.2a1.844,1.844,0,0,1-.39-.24,1.129,1.129,0,0,1-.27-.34,1.045,1.045,0,0,1-.1-.49,1.115,1.115,0,0,1,.42-.91,1.83,1.83,0,0,1,1.15-.34c.12,0,.24.01.37.02a3.071,3.071,0,0,1,.34.05c.11.02.2.04.28.06a1.45,1.45,0,0,1,.19.06l-.14.66a2.28,2.28,0,0,0-.39-.14,2.408,2.408,0,0,0-.64-.07,1.1,1.1,0,0,0-.56.13.43.43,0,0,0-.24.4.655.655,0,0,0,.05.25.51.51,0,0,0,.17.19,1.215,1.215,0,0,0,.28.16c.11.05.24.1.4.16.2.08.39.15.55.23a1.515,1.515,0,0,1,.41.26,1.04,1.04,0,0,1,.26.36,1.311,1.311,0,0,1,.09.52,1.024,1.024,0,0,1-.44.9,2.267,2.267,0,0,1-1.27.31,3.1,3.1,0,0,1-.9-.1,2.612,2.612,0,0,1-.44-.15l.14-.66q.135.045.42.15A2.288,2.288,0,0,0,235,81.83Z" transform="translate(7 -198.986)" fill="#1d1d1b"/>
      <path id="Caminho_16" data-name="Caminho 16" d="M219.57,73.98V63.5a11.993,11.993,0,0,1,2.72-.97,12.9,12.9,0,0,1,3.01-.37,5.1,5.1,0,0,1,3.72,1.19,4.432,4.432,0,0,1,1.22,3.32v7.31h-3.3V67.03a2.3,2.3,0,0,0-.49-1.58,1.85,1.85,0,0,0-1.48-.57,6.021,6.021,0,0,0-1.11.12,3.906,3.906,0,0,0-.99.3v8.68Z" transform="translate(7 -198.986)" fill="#1d1d1b"/>
      <path id="Caminho_17" data-name="Caminho 17" d="M203.91,73.87l.17-2.32c1.68.18,2.95.27,3.8.27a3.4,3.4,0,0,0,1.68-.31.932.932,0,0,0,.53-.8.982.982,0,0,0-.3-.72,1.982,1.982,0,0,0-.83-.44c-.36-.1-.75-.21-1.17-.34a12.663,12.663,0,0,1-1.27-.43,5.874,5.874,0,0,1-1.17-.61,2.6,2.6,0,0,1-.86-1.01,3.436,3.436,0,0,1-.33-1.55,3.743,3.743,0,0,1,.23-1.35,2.287,2.287,0,0,1,.64-.96,4.443,4.443,0,0,1,.86-.6,3.665,3.665,0,0,1,1.06-.34c.4-.07.75-.11,1.06-.14s.64-.04,1-.04a23.25,23.25,0,0,1,4.05.31l-.21,2.35a19.291,19.291,0,0,0-2.97-.27,8.653,8.653,0,0,0-.95.04,3.436,3.436,0,0,0-.75.15,1.1,1.1,0,0,0-.53.31.714.714,0,0,0-.18.5.724.724,0,0,0,.36.62,2.745,2.745,0,0,0,.88.37c.35.09.74.18,1.17.29a7.35,7.35,0,0,1,1.25.42,5,5,0,0,1,1.13.64,2.75,2.75,0,0,1,.83,1.09,4.013,4.013,0,0,1,.32,1.65q0,3.585-4.78,3.58a37.5,37.5,0,0,1-4.72-.36" transform="translate(7 -198.986)" fill="#1d1d1b"/>
      <path id="Caminho_18" data-name="Caminho 18" d="M243.39,73.87l.17-2.32c1.68.18,2.95.27,3.8.27a3.4,3.4,0,0,0,1.68-.31.932.932,0,0,0,.53-.8.982.982,0,0,0-.3-.72,1.982,1.982,0,0,0-.83-.44c-.36-.1-.75-.21-1.17-.34a12.663,12.663,0,0,1-1.27-.43,5.874,5.874,0,0,1-1.17-.61,2.6,2.6,0,0,1-.86-1.01,3.436,3.436,0,0,1-.33-1.55,3.743,3.743,0,0,1,.23-1.35,2.287,2.287,0,0,1,.64-.96,4.443,4.443,0,0,1,.86-.6,3.665,3.665,0,0,1,1.06-.34c.4-.07.75-.11,1.06-.14s.64-.04,1-.04a23.25,23.25,0,0,1,4.05.31l-.21,2.35a19.291,19.291,0,0,0-2.97-.27,8.653,8.653,0,0,0-.95.04,3.436,3.436,0,0,0-.75.15,1.1,1.1,0,0,0-.53.31.714.714,0,0,0-.18.5.724.724,0,0,0,.36.62,2.745,2.745,0,0,0,.88.37c.35.09.74.18,1.17.29a7.35,7.35,0,0,1,1.25.42,5,5,0,0,1,1.13.64,2.75,2.75,0,0,1,.83,1.09,4.013,4.013,0,0,1,.32,1.65q0,3.585-4.78,3.58a37.5,37.5,0,0,1-4.72-.36" transform="translate(7 -198.986)" fill="#1d1d1b"/>
      <path id="Caminho_19" data-name="Caminho 19" d="M253.84,73.87l.17-2.32c1.68.18,2.95.27,3.8.27a3.4,3.4,0,0,0,1.68-.31.932.932,0,0,0,.53-.8.982.982,0,0,0-.3-.72,1.982,1.982,0,0,0-.83-.44c-.36-.1-.75-.21-1.17-.34a12.66,12.66,0,0,1-1.27-.43,5.874,5.874,0,0,1-1.17-.61,2.6,2.6,0,0,1-.86-1.01,3.436,3.436,0,0,1-.33-1.55,3.743,3.743,0,0,1,.23-1.35,2.287,2.287,0,0,1,.64-.96,4.443,4.443,0,0,1,.86-.6,3.665,3.665,0,0,1,1.06-.34c.4-.07.75-.11,1.06-.14s.64-.04,1-.04a23.249,23.249,0,0,1,4.05.31l-.21,2.35a19.291,19.291,0,0,0-2.97-.27,8.653,8.653,0,0,0-.95.04,3.437,3.437,0,0,0-.75.15,1.1,1.1,0,0,0-.53.31.714.714,0,0,0-.18.5.724.724,0,0,0,.36.62,2.745,2.745,0,0,0,.88.37c.35.09.74.18,1.17.29a7.349,7.349,0,0,1,1.25.42,5,5,0,0,1,1.13.64,2.75,2.75,0,0,1,.83,1.09,4.013,4.013,0,0,1,.32,1.65q0,3.585-4.78,3.58a37.21,37.21,0,0,1-4.72-.36" transform="translate(7 -198.986)" fill="#1d1d1b"/>
      <path id="Caminho_20" data-name="Caminho 20" d="M192.24,69.56V62.39h3.3v6.86c0,1.5.64,2.25,1.91,2.25a8.1,8.1,0,0,0,1.99-.25V62.4h3.3v11a15.23,15.23,0,0,1-2.67.6,21.141,21.141,0,0,1-2.79.21q-5.04-.015-5.04-4.65" transform="translate(7 -198.986)" fill="#1d1d1b"/>
      <path id="Caminho_21" data-name="Caminho 21" d="M179.88,73.43V57.77h3.3v5.38a7.2,7.2,0,0,1,1.45-.75,4.766,4.766,0,0,1,1.61-.23,4.484,4.484,0,0,1,3.59,1.41,5.983,5.983,0,0,1,1.22,4.04v.31a8.513,8.513,0,0,1-.34,2.53,5.426,5.426,0,0,1-.91,1.8,4.811,4.811,0,0,1-1.41,1.15,6.1,6.1,0,0,1-1.73.63,10.219,10.219,0,0,1-1.99.18,17.534,17.534,0,0,1-2.53-.2,12.667,12.667,0,0,1-2.26-.59m3.3-2a4.461,4.461,0,0,0,1.46.21,2.735,2.735,0,0,0,2.12-.86,3.933,3.933,0,0,0,.79-2.71v-.28c0-1.94-.82-2.91-2.47-2.91a3.6,3.6,0,0,0-1.9.47Z" transform="translate(7 -198.986)" fill="#1d1d1b"/>
      <path id="Caminho_22" data-name="Caminho 22" d="M149.94,68.35v-.37a6.069,6.069,0,0,1,1.4-4.37,6.592,6.592,0,0,1,8.25,0,6.268,6.268,0,0,1,1.39,4.5v1.18h-7.53a2.446,2.446,0,0,0,.98,1.84,5.04,5.04,0,0,0,2.61.5,5.753,5.753,0,0,0,2.89-.92l.19,2.6a8.632,8.632,0,0,1-8.51-.51,5.446,5.446,0,0,1-1.67-4.45m3.35-1.11h4.4c-.03-1.67-.75-2.51-2.16-2.51a2,2,0,0,0-1.6.62A3.07,3.07,0,0,0,153.29,67.24Z" transform="translate(7 -198.986)" fill="#1d1d1b"/>
      <path id="Caminho_23" data-name="Caminho 23" d="M231.56,68.35v-.37a6.069,6.069,0,0,1,1.4-4.37,6.592,6.592,0,0,1,8.25,0,6.268,6.268,0,0,1,1.39,4.5v1.18h-7.53a2.446,2.446,0,0,0,.98,1.84,5.04,5.04,0,0,0,2.61.5,5.753,5.753,0,0,0,2.89-.92l.19,2.6a8.632,8.632,0,0,1-8.51-.51,5.446,5.446,0,0,1-1.67-4.45m3.35-1.11h4.4c-.03-1.67-.75-2.51-2.16-2.51a2,2,0,0,0-1.6.62A3.069,3.069,0,0,0,234.91,67.24Z" transform="translate(7 -198.986)" fill="#1d1d1b"/>
      <rect id="Retângulo_3" data-name="Retângulo 3" width="3.3" height="11.59" transform="translate(221.58 -136.596)" fill="#1d1d1b"/>
      <path id="Caminho_24" data-name="Caminho 24" d="M175.11,67.73a1.707,1.707,0,0,0-.99-1.44l-2.94-1.7a1.706,1.706,0,0,0-1.72.01l-3.06,1.77a1.686,1.686,0,0,0-.85,1.47v2.01h0V73.1a.892.892,0,0,1-.89.89h-1.49a.892.892,0,0,1-.89-.89V67.05h.01v-.42a2.862,2.862,0,0,1,1.44-2.48l5.15-2.97a2.847,2.847,0,0,1,2.89-.02l4.96,2.86a2.867,2.867,0,0,1,1.68,2.61l-.01,2.99V73.1a.892.892,0,0,1-.89.89H176a.892.892,0,0,1-.89-.89V67.73Z" transform="translate(7 -198.986)" fill="#1d1d1b" fill-rule="evenodd"/>
      <path id="Caminho_25" data-name="Caminho 25" d="M165.45,61.12l-2.57,1.49a1.4,1.4,0,0,1-1.44.01l-2.48-1.43a1.438,1.438,0,0,1-.84-1.31l.01-3a1.431,1.431,0,0,1,.72-1.24l2.57-1.49a1.421,1.421,0,0,1,1.45-.01l2.48,1.43a1.438,1.438,0,0,1,.84,1.31l-.01,3a1.45,1.45,0,0,1-.73,1.24" transform="translate(7 -198.986)" fill="#1d1d1b" fill-rule="evenodd"/>
      <path id="Caminho_26" data-name="Caminho 26" d="M174.03,73.72l-2.86,1.65a1.706,1.706,0,0,1-1.72-.01l-2.83-1.64a2.081,2.081,0,0,1-1.97,1.44h-1.49a1.927,1.927,0,0,1-.24-.01,2.868,2.868,0,0,0,.79.67l5.15,2.97a2.847,2.847,0,0,0,2.89.02l4.96-2.86a2.933,2.933,0,0,0,1.04-.8,2.09,2.09,0,0,1-.25.01H176a2.068,2.068,0,0,1-1.97-1.44" transform="translate(7 -198.986)" fill="#1d1d1b" fill-rule="evenodd"/>
    </g>
  </g>
</svg>
