<svg xmlns="http://www.w3.org/2000/svg" width="1441.251" height="139.222" viewBox="0 0 1441.251 139.222">
  <g id="Grupo_1" data-name="Grupo 1" transform="translate(0 -0.048)">
    <path id="Caminho_1" data-name="Caminho 1" d="M1380.12,2.25c-25.5-1.02-51.25,1.26-77.58,3.9-1.75.18-3.5.35-5.26.52-19.83,1.94-40.34,3.94-58.67,12.08-7.25,3.22-13.82,7.89-20.17,12.4a163.859,163.859,0,0,1-14.72,9.68c-2.88,1.61-7.24,3.29-11.6,2.18-5.48-1.4-8.16-6.49-9.7-10.19-.38-.92-.74-1.85-1.09-2.78a43.921,43.921,0,0,0-2.74-6.2c-.69-1.21-1.42-1.79-2.17-1.72-1.74.17-3.69,3.68-4.52,6.12a44.275,44.275,0,0,0-1.37,5.65c-.18.93-.37,1.87-.58,2.79-.3,1.33-.55,2.69-.81,4.13-.87,4.82-1.77,9.79-4.94,13.57-2.76,3.29-7.47,5.28-12.4,5.28-.2,0-.4,0-.6-.01-4.7-.16-8.75-2.1-11.13-5.34-2.74-3.73-2.83-9.47-.23-13.94a36.134,36.134,0,0,1,6.33-7.39c2.69-2.62,5.48-5.32,6.98-8.82.95-2.21,1.46-5.44-.24-7.25a3.766,3.766,0,0,0-2.63-1.12h-.11c-1.92,0-4.07,1.24-6.39,3.68-.61.64-1.19,1.31-1.76,1.98a34.915,34.915,0,0,1-2.89,3.09c-.01.01-.01.02-.02.03a24.959,24.959,0,0,1-5.36,3.7,98.452,98.452,0,0,1-4.86,15.97c-2.6,6.22-5.63,10.1-9.54,12.2a14.352,14.352,0,0,1-6.76,1.69,13.793,13.793,0,0,1-1.82-.12,13.143,13.143,0,0,1-7.3-3.41,14.619,14.619,0,0,1-4.03-7.52,22.1,22.1,0,0,1,.38-10.37c-.39.51-.82,1.02-1.87,2.21-2.49,2.82-5.08,5.59-7.51,8.15-4.43,4.69-9,9.3-13.57,13.72-4.41,4.27-8.98,8.52-13.39,12.64-4.24,3.95-8.58,7.99-12.83,12.1-3.34,7.99-7.7,16-14.18,21.88a11.121,11.121,0,0,1-6.3,2.88c-.21.02-.44.04-.68.04a1.83,1.83,0,0,1-1.76-.75c-.5-.97.53-2.29,1.72-3.68.12-.14.23-.27.32-.38,1.3-1.59,2.74-3.08,4.13-4.53.53-.55,1.05-1.09,1.57-1.64,2.48-2.64,5.08-5.24,7.6-7.75l1.42-1.42c1.75-1.75,3.53-3.5,5.32-5.23,1.77-4.25,3.26-8.51,4.63-12.43,1.6-4.57,2.92-9.3,4.19-13.87.95-3.4,1.92-6.91,3.01-10.33.15-.49.32-.97.5-1.44a39.078,39.078,0,0,1-14.79,2.23c-5.7-.23-10.24-2.5-12.8-6.39-2.32-3.53-3.29-8.29-2.97-14.58a54.218,54.218,0,0,1,1.49-9.94c.35-1.47.68-2.75,1.02-3.9-5.94,7.25-26.23,30.91-42.44,36.43h0a56.377,56.377,0,0,1-18.95,3.33,52.143,52.143,0,0,1-5.88-.33c-10.17-1.14-18.86-5.75-26.73-10.55a94.162,94.162,0,0,0-19.15-9.25c-5.82-1.96-12.02-3.83-18.12-3.34a34.148,34.148,0,0,0-15.96,5.84,13.492,13.492,0,0,0-2.93,2.46,3.578,3.578,0,0,0-1.02,2.64,2.669,2.669,0,0,0,1.17,1.82,7.039,7.039,0,0,0,4.38,1.26c2.84-.05,5.23-1.15,7.85-2.47a14.275,14.275,0,0,1,8.24-1.28.506.506,0,0,1,.44.56.5.5,0,0,1-.56.44,17.038,17.038,0,0,0-1.85-.12c5.69,3.63,11.55,7.63,16.04,12.9a18.07,18.07,0,0,1,3.09,4.82c.6,1.52.81,3.82-.16,5.29a3.124,3.124,0,0,1-2.64,1.4,8.975,8.975,0,0,1-4.74-1.58l.24.27a21.993,21.993,0,0,1,3.79,5.24c.3.65,1.21,2.91.4,4.77a3.205,3.205,0,0,1-2.03,1.8,6.378,6.378,0,0,1-2.84.19,15.027,15.027,0,0,1-5.89-2.27c1.84,2.26,3.58,4.92,3.02,7.04a3.492,3.492,0,0,1-2.44,2.33,9.173,9.173,0,0,1-6.44-.46,18.4,18.4,0,0,1-3.47-2.05,10.391,10.391,0,0,1,.51,1.15,4.359,4.359,0,0,1-.31,3.88,3.56,3.56,0,0,1-2.88,1.55c-.1.01-.2.01-.29.01-2.71,0-5.31-1.95-7.33-3.75a4.567,4.567,0,0,1-3.77,3.57c-.14.01-.27.02-.41.02-2.33,0-4.38-2.11-4.68-4.92a6.489,6.489,0,0,1,.1-1.93c-1.86,2.53-4.26,4.09-6.31,4.09a3.548,3.548,0,0,1-1.67-.4c-2.35-1.26-2.79-5.13-1.21-9.09-1.91,2-4.1,3.19-6,3.19a3.81,3.81,0,0,1-1.97-.51c-2.77-1.6-2.93-6.54-.45-11.21a5.588,5.588,0,0,1-3.11,1.16,2.926,2.926,0,0,1-1.49-.38c-2.17-1.25-2.23-5.23-.12-8.87,1.67-2.89,4.2-4.71,6.26-4.71a2.926,2.926,0,0,1,1.49.38c1.95,1.13,2.19,4.45.69,7.76a8.046,8.046,0,0,1,4.87-2.13,3.81,3.81,0,0,1,1.97.51c2.5,1.44,2.88,5.6,1.11,9.83a7.5,7.5,0,0,1,4.94-2.48,3.548,3.548,0,0,1,1.67.4c2.43,1.3,2.81,5.39,1.05,9.48a4.02,4.02,0,0,1,2.13-.95c.14-.01.27-.02.41-.02,2.33,0,4.38,2.11,4.68,4.92a6.321,6.321,0,0,1,0,1.23.461.461,0,0,1,.27.11c1.98,1.78,4.6,3.82,7.12,3.68a2.553,2.553,0,0,0,2.1-1.1,3.373,3.373,0,0,0,.21-2.98,13.011,13.011,0,0,0-3.55-4.87.5.5,0,0,1-.03-.71.514.514,0,0,1,.71-.03l.01.01a26.8,26.8,0,0,0,7.17,5.23,8.235,8.235,0,0,0,5.7.44,2.54,2.54,0,0,0,1.81-1.64c.58-2.2-2.41-5.68-3.54-6.99a54.661,54.661,0,0,0-4.89-4.87c-.02-.02-.04-.03-.05-.05h0l-.06-.06v-.01a.541.541,0,0,1-.01-.67.462.462,0,0,1,.67-.07c.01,0,.01.01.02.01.03.03.06.05.09.08,3.44,3.11,7.25,6.52,11.74,7.11a5.122,5.122,0,0,0,2.39-.15,2.218,2.218,0,0,0,1.43-1.25,5.322,5.322,0,0,0-.39-3.96,21.375,21.375,0,0,0-3.63-5c-.26-.29-.52-.59-.78-.88a68.777,68.777,0,0,0-5.13-5.25.5.5,0,1,1,.69-.73c1.27,1.19,2.46,2.29,3.78,3.31,1.81,1.39,4.29,3.3,6.66,3.21a2.147,2.147,0,0,0,1.84-.95,5.3,5.3,0,0,0,.06-4.38,16.961,16.961,0,0,0-2.92-4.53c-4.57-5.36-10.62-9.41-16.44-13.1-.15-.09-.24-.14-.34-.19a3.078,3.078,0,0,1-.29-.16,11.772,11.772,0,0,0-4.03,1.2c-2.62,1.33-5.23,2.53-8.28,2.58a8.22,8.22,0,0,1-5-1.46,3.633,3.633,0,0,1-1.57-2.51,4.539,4.539,0,0,1,1.25-3.39,14.8,14.8,0,0,1,3.14-2.65c.13-.09.27-.17.41-.25a54.753,54.753,0,0,0-26.02-1.81c-11.74,2.05-21.8,7.7-31.53,13.17-6.66,3.74-13.55,7.61-21.02,10.38a61.07,61.07,0,0,1-33.15,2.47,62.816,62.816,0,0,1-16.03-5.5,39.233,39.233,0,0,1-4.58-2.92c-3.16-2.21-6.43-4.5-9.63-4.51h-.02c-4.49,0-8.32,3.24-11.47,6.42-2.21,2.22-4.37,4.58-6.47,6.85-1.08,1.17-2.16,2.35-3.25,3.51a9.937,9.937,0,0,1,1.03,4.63,5.763,5.763,0,0,1-2.25,4.13,2.733,2.733,0,0,1-1.46.44,2.846,2.846,0,0,1-1.02-.2,2.975,2.975,0,0,1-1.73-2.91,5.3,5.3,0,0,1,1.26-3,31.939,31.939,0,0,1,2.32-2.59l.66-.69c-.2-.41-.42-.8-.62-1.17-1.44-2.55-3.1-5.03-4.7-7.43-1.5-2.25-3.05-4.58-4.43-6.97-.48-.83-.98-1.67-1.49-2.52-2.14-3.57-4.35-7.27-5.51-11.13a21.555,21.555,0,0,1-.68-3c-1.35,2.74-2.91,5.96-4.45,9.11l-2.11,4.34a.06.06,0,0,1-.01.04,86.037,86.037,0,0,1-7.2,12.26l-.48.69c-.08.12-.16.23-.24.35.26.4.51.8.76,1.2.8,1.29,1.66,3.19,1.23,4.89a3.722,3.722,0,0,1-1.86,2.33,3.236,3.236,0,0,1-1.59.44,2.635,2.635,0,0,1-.84-.13,2.756,2.756,0,0,1-1.67-1.62c-.63-1.61.37-3.29,1.1-4.51.55-.92,1.12-1.78,1.68-2.61-.89-1.36-1.81-2.7-2.71-4l-.21-.31c-.28-.41-.56-.82-.85-1.23-3.13-4.36-6.18-8.88-9.07-13.42l-.89-1.39c-2.82-4.38-6.13-9.52-6.91-14.82-1.5,3.02-3.19,6.49-5.04,10.28-4.07,8.35-8.69,17.81-13.19,26.49h0a95.211,95.211,0,0,1-18.45,25.7c-3.89,3.88-14.04,12.32-24.15,7.02a14.9,14.9,0,0,1-2.46-1.61c-7,7.62-13.18,13.45-14.81,14.37a9.963,9.963,0,0,1-5.95,1.96,9.406,9.406,0,0,1-2.64-.37,10,10,0,0,1-6.76-7.06c-1.7-5.54-1-11.46,2.13-18.1a114.384,114.384,0,0,1,8.11-13.73,118.807,118.807,0,0,0,7.78-13.07c3.6-7.43,4.23-13.37,1.89-17.68a11.2,11.2,0,0,0-8.25-5.43,15,15,0,0,0-11.18,3.04c-4.82,3.88-8.26,9.2-11.65,14.77-1.67,2.74-3.4,6.34-5.08,9.83-.97,2.02-1.88,3.92-2.75,5.58-.11.3-.21.59-.31.86l-.79,2.09c-1.56,4.15-3.17,8.45-4.97,12.62a.5.5,0,0,1-.46.3.477.477,0,0,1-.2-.04.5.5,0,0,1-.26-.66c1.8-4.14,3.4-8.43,4.96-12.57l.79-2.09c1.47-3.9,3.47-11.2.33-16.18a6.125,6.125,0,0,0-4.23-2.99c-2.63-.45-6.08.79-9.22,3.31-4.54,3.63-7.42,9.17-9.2,13.02-6.5,14.09-12.32,15.56-13.19,15.71a9.19,9.19,0,0,1-7.28.19c-9.43-3.72-7.29-17.24-6.38-23.01a57.071,57.071,0,0,1,1.28-5.64c0-.01.01-.03.01-.04a25.708,25.708,0,0,1-4.03,4.28c-.01.01-.01.02-.02.03l-.33.28c-2.29,1.99-4.67,4.05-6.93,6.15-1.41,1.3-3.21,3-4.98,4.84a9.78,9.78,0,0,1,1.02,4.63,5.744,5.744,0,0,1-2.25,4.13,2.666,2.666,0,0,1-2.48.24,2.975,2.975,0,0,1-1.73-2.91,5.3,5.3,0,0,1,1.26-3,31.927,31.927,0,0,1,2.32-2.59l.66-.69c-.2-.41-.42-.8-.62-1.17-1.44-2.55-3.1-5.03-4.7-7.43-1.5-2.25-3.05-4.58-4.43-6.97-.48-.83-.98-1.67-1.49-2.52-2.14-3.57-4.35-7.27-5.51-11.13a22.161,22.161,0,0,1-.69-3.02c-1.54,3.09-3.29,6.68-5.2,10.61-14,28.71-26.01,52.54-31.1,53.27a2.461,2.461,0,0,1-.26.02,1.6,1.6,0,0,1-1.17-.51c-.01-.01-.02-.01-.02-.02s-.01-.01-.02-.01a.161.161,0,0,1-.04-.07c-.02-.03-.04-.04-.05-.07,0-.01,0-.02-.01-.02s-.01-.02-.01-.03c-1.41-3.44,1.95-14.44,4.16-20.88-3.22,5.38-6.56,10.93-10.33,16.09l-.58.79c-2.32,3.19-4.71,6.48-8.01,8.76-4.81,3.33-11.9,4.08-15.54-1.07-3.91-5.53-2.55-13.5-1.09-19.18a20,20,0,0,1-6.66.85c0,.15,0,.3-.01.45a10.087,10.087,0,0,1-.94,3.37,37.848,37.848,0,0,1-18.4,18.51,20.355,20.355,0,0,1-7.58,1.97c-.15.01-.32.01-.49.01a8.4,8.4,0,0,1-4.88-1.4,10.05,10.05,0,0,1-2.67-3.11,23.571,23.571,0,0,1-3.19-10.42c-3.38,5.01-6.53,8.98-9.22,11.14a.462.462,0,0,1-.07.07c-.04.03-.09.06-.13.09a.265.265,0,0,0-.06.05c-.01.01-.03.01-.04.02a9.973,9.973,0,0,1-5.74,1.81,9.406,9.406,0,0,1-2.64-.37,10,10,0,0,1-6.76-7.06c-1.7-5.54-1-11.46,2.13-18.1a114.507,114.507,0,0,1,8.11-13.74,117.876,117.876,0,0,0,7.78-13.07c3.6-7.43,4.23-13.38,1.89-17.68a11.2,11.2,0,0,0-8.25-5.43,14.955,14.955,0,0,0-11.18,3.04c-4.81,3.88-8.26,9.2-11.65,14.77-1.67,2.74-3.4,6.34-5.08,9.82-.97,2.02-1.88,3.92-2.75,5.58-.11.3-.21.59-.31.86l-.79,2.12c-1.55,4.14-3.16,8.43-4.96,12.59a.5.5,0,0,1-.46.3.477.477,0,0,1-.2-.04.5.5,0,0,1-.26-.66c1.79-4.14,3.39-8.41,4.94-12.54l.79-2.12c1.47-3.9,3.47-11.2.33-16.18a6.767,6.767,0,0,0-4.35-3.21,8.506,8.506,0,0,0-6.47,1.62c-2.03,1.39-4.73,4.38-11.86,15h0c-1.41,2.07-2.82,4.25-4.19,6.36-4.15,6.4-8.44,13.03-13.83,18.39-3.01,3-9.75,8.72-17.33,8.72a14.428,14.428,0,0,1-6.82-1.7c-4.48-2.35-6.74-6.47-7.8-10.83a296.691,296.691,0,0,1-125.14,46.41,317.476,317.476,0,0,1-40.92,2.6,363.427,363.427,0,0,1-73.67-7.78v17.89h1439.25V12.6a.567.567,0,0,1-.18-.03C1419.26,4.64,1395.89,2.88,1380.12,2.25Z" fill="#fff"/>
    <path id="Caminho_2" data-name="Caminho 2" d="M489.54,66.2a31.477,31.477,0,0,0-2.25,2.51,4.329,4.329,0,0,0-1.05,2.42,2,2,0,0,0,1.09,1.94,1.626,1.626,0,0,0,1.58-.16,4.811,4.811,0,0,0,1.79-3.35,8.6,8.6,0,0,0-.77-3.78Z" fill="#fff"/>
    <path id="Caminho_3" data-name="Caminho 3" d="M689.76,58.67c-.47.7-.93,1.41-1.36,2.13-.71,1.19-1.53,2.57-1.08,3.72a1.767,1.767,0,0,0,1.06,1.03,2.023,2.023,0,0,0,1.62-.23,2.727,2.727,0,0,0,1.39-1.7c.34-1.36-.41-3-1.11-4.12C690.11,59.22,689.94,58.95,689.76,58.67Z" fill="#fff"/>
    <path id="Caminho_4" data-name="Caminho 4" d="M883.66,78.08c-.1,0-.2.01-.3.02-1.94.2-3.32,2.34-3.06,4.75.24,2.26,1.86,4.02,3.68,4.02.1,0,.2-.01.3-.02,1.94-.2,3.32-2.33,3.06-4.75C887.11,79.85,885.49,78.08,883.66,78.08Z" fill="#fff"/>
    <path id="Caminho_5" data-name="Caminho 5" d="M1043.73,92.31c-2.51,2.51-5.11,5.1-7.58,7.73-.52.55-1.05,1.1-1.58,1.65-1.38,1.43-2.8,2.91-4.08,4.47-.09.11-.21.25-.34.4-1.21,1.4-1.74,2.26-1.58,2.57.05.1.43.28,1.46.18a10.025,10.025,0,0,0,5.73-2.62c5.75-5.22,9.81-12.19,12.98-19.33-1.21,1.18-2.4,2.36-3.59,3.54Z" fill="#fff"/>
    <path id="Caminho_6" data-name="Caminho 6" d="M879.6,69.45a2.488,2.488,0,0,0-1.19-.28c-2.18,0-4.89,2.21-6.58,5.37-2.09,3.9-2.05,8.15.08,9.29a2.5,2.5,0,0,0,1.2.28c2.18,0,4.89-2.21,6.58-5.37C881.77,74.84,881.73,70.59,879.6,69.45Z" fill="#fff"/>
    <path id="Caminho_7" data-name="Caminho 7" d="M873.56,65.52c-.03-1.85-.63-3.22-1.71-3.84a2.868,2.868,0,0,0-1.47-.37c-2.42,0-5.47,2.36-7.42,5.74a13.126,13.126,0,0,0-1.91,6.55c.03,1.85.63,3.22,1.71,3.84a2.868,2.868,0,0,0,1.47.37c2.42,0,5.47-2.36,7.42-5.74A13.155,13.155,0,0,0,873.56,65.52Z" fill="#fff"/>
    <path id="Caminho_8" data-name="Caminho 8" d="M722.36,64.59a31.471,31.471,0,0,0-2.25,2.51,4.329,4.329,0,0,0-1.05,2.42,2,2,0,0,0,1.09,1.94,1.626,1.626,0,0,0,1.58-.16,4.811,4.811,0,0,0,1.79-3.35,8.6,8.6,0,0,0-.77-3.78Z" fill="#fff"/>
    <path id="Caminho_9" data-name="Caminho 9" d="M864.08,63.04c1.76-3.05,1.88-6.56.24-7.5a1.993,1.993,0,0,0-.99-.25c-1.74,0-3.96,1.73-5.39,4.21a9.68,9.68,0,0,0-1.41,4.82,3.118,3.118,0,0,0,1.17,2.69,1.992,1.992,0,0,0,.99.25C860.44,67.25,862.65,65.52,864.08,63.04Z" fill="#fff"/>
    <path id="Caminho_10" data-name="Caminho 10" d="M.9,121.33c.03.01.07.01.1.02v-.51Z" fill="#1d1d1b"/>
    <path id="Caminho_11" data-name="Caminho 11" d="M1440.43,11.64l-.18-.06v1.03a.506.506,0,0,0,.47-.32A.5.5,0,0,0,1440.43,11.64Z" fill="#1d1d1b"/>
    <path id="Caminho_12" data-name="Caminho 12" d="M1380.16,1.25c-25.57-1.03-51.35,1.26-77.72,3.9-1.75.17-3.5.35-5.26.52-19.91,1.94-40.5,3.95-58.98,12.16-7.34,3.26-13.95,7.96-20.35,12.5a160.409,160.409,0,0,1-14.63,9.62c-2.72,1.52-6.81,3.12-10.86,2.08-3.84-.98-6.71-4.04-9.02-9.61-.38-.91-.73-1.83-1.09-2.75a44.044,44.044,0,0,0-2.81-6.34c-.9-1.59-1.98-2.31-3.13-2.22-2.51.24-4.61,4.55-5.38,6.79a46.321,46.321,0,0,0-1.41,5.78c-.18.93-.36,1.85-.57,2.76-.31,1.36-.57,2.79-.82,4.18-.84,4.68-1.72,9.53-4.72,13.1-2.68,3.19-7.32,5.09-12.2,4.91-4.39-.14-8.16-1.94-10.35-4.93-2.51-3.42-2.58-8.7-.18-12.85a35.32,35.32,0,0,1,6.16-7.17c2.77-2.68,5.62-5.46,7.21-9.13,1.12-2.61,1.6-6.17-.43-8.34a4.691,4.691,0,0,0-3.33-1.43c-2.23-.03-4.68,1.29-7.25,3.99-.62.66-1.21,1.34-1.8,2.02a32.437,32.437,0,0,1-2.83,3.03c0,.01,0,.01-.01.02a24.361,24.361,0,0,1-4.38,3.14,20.057,20.057,0,0,0,.61-4.35c0-.18,0-.35-.01-.53a6.891,6.891,0,0,0-1.91-4.69,7.131,7.131,0,0,0-4.54-1.79,9.751,9.751,0,0,0-7.92,3.09,8.6,8.6,0,0,0-1.94,6.97,5.628,5.628,0,0,0,3,4.11,8.4,8.4,0,0,0,3.86.7,19.648,19.648,0,0,0,7.41-1.68,95.537,95.537,0,0,1-4.64,15.04c-2.5,6-5.39,9.72-9.09,11.7a13.216,13.216,0,0,1-7.97,1.46,12.024,12.024,0,0,1-6.75-3.14,13.618,13.618,0,0,1-3.74-7.01,21.678,21.678,0,0,1,.83-11.46,38.454,38.454,0,0,1,6.31-11.81,26.5,26.5,0,0,1,10.73-8.3c1.85-.75,4.53-1.65,6.49-.92a.5.5,0,0,0,.35-.94c-2.28-.85-5.21.13-7.21.93a27.654,27.654,0,0,0-11.15,8.61,39.171,39.171,0,0,0-5.95,10.67c-.54.73-.89,1.22-1.17,1.6a29.86,29.86,0,0,1-2.45,3.02c-2.48,2.81-5.06,5.57-7.49,8.13-4.42,4.67-8.97,9.28-13.53,13.69-4.41,4.26-8.97,8.51-13.39,12.63-3.7,3.45-7.48,6.97-11.22,10.55,1.42-3.57,2.65-7.1,3.81-10.4,1.61-4.59,2.93-9.34,4.21-13.93.94-3.39,1.92-6.89,3-10.3.24-.76.51-1.51.8-2.24a43.2,43.2,0,0,0,12.89-8.61c5.23-4.91,11.98-12.28,14.38-19.53a.493.493,0,0,0-.09-.48.518.518,0,0,0-.45-.17,5.92,5.92,0,0,0-1.66.52,38.312,38.312,0,0,0-4.72,2.61,55.253,55.253,0,0,0-14,13.2,54.182,54.182,0,0,0-7.11,11.69,38.2,38.2,0,0,1-15.25,2.5c-5.36-.22-9.63-2.33-12-5.94-2.2-3.35-3.11-7.92-2.81-13.98a54.868,54.868,0,0,1,1.46-9.76,61.081,61.081,0,0,1,1.83-6.39.515.515,0,0,0-.23-.61.51.51,0,0,0-.64.14c-.24.31-24.84,31.79-43.67,38.21h-.01a54.644,54.644,0,0,1-24.39,2.96c-9.97-1.13-18.55-5.67-26.33-10.41a94.605,94.605,0,0,0-19.35-9.35c-5.92-1.99-12.23-3.9-18.52-3.39a34.468,34.468,0,0,0-14.89,5.04,55.87,55.87,0,0,0-27.33-2.08c-11.91,2.08-22.04,7.77-31.85,13.27-6.63,3.73-13.48,7.58-20.87,10.31a59.975,59.975,0,0,1-32.61,2.43,61.687,61.687,0,0,1-15.77-5.41,39.33,39.33,0,0,1-4.46-2.85c-3.29-2.3-6.68-4.68-10.2-4.69h-.02c-4.86,0-8.89,3.39-12.19,6.71-2.22,2.24-4.39,4.6-6.49,6.88-1,1.08-1.99,2.16-2.99,3.23-.16-.31-.32-.61-.48-.89-1.46-2.58-3.13-5.08-4.74-7.49-1.49-2.24-3.03-4.56-4.4-6.92-.48-.83-.98-1.68-1.5-2.53-2.1-3.52-4.28-7.17-5.4-10.9a19.293,19.293,0,0,1-.82-4.38c.6-1.22,1.14-2.29,1.6-3.17l.74-1.44a1.96,1.96,0,0,0,.22-1.74.926.926,0,0,0-.9-.6c-1.03.06-1.98,1.93-2.05,2.14a12.109,12.109,0,0,0-.62,4.59c-1.5,3.02-3.35,6.83-5.16,10.55l-2.13,4.38a.076.076,0,0,0-.01.04,85.716,85.716,0,0,1-7.11,12.09l-.47.69h-.01c-.82-1.25-1.66-2.47-2.49-3.67l-.21-.31c-.29-.42-.57-.84-.87-1.25-3.11-4.35-6.16-8.85-9.04-13.37l-.89-1.4c-3.04-4.72-6.67-10.35-6.9-15.98.62-1.24,1.2-2.39,1.74-3.44l.74-1.44a1.933,1.933,0,0,0,.22-1.73.926.926,0,0,0-.9-.6c-1.03.06-1.98,1.93-2.05,2.14a13.292,13.292,0,0,0-.77,4.86c-1.67,3.35-3.61,7.33-5.77,11.75-4.07,8.35-8.68,17.8-13.17,26.47h-.01a94.143,94.143,0,0,1-18.26,25.45c-3.74,3.72-13.46,11.84-22.98,6.85a13.325,13.325,0,0,1-2.24-1.47c10.63-11.68,22.83-27.21,23.61-35.8a6.991,6.991,0,0,0-2.97-6.57,10.714,10.714,0,0,0-8.75-2.11c-5.95,1.14-11.24,6.74-13.98,11.2a33.325,33.325,0,0,0-4.73,17.68c.06,7.21,1.84,12.4,5.42,15.73-6.94,7.54-13.07,13.31-14.61,14.13-.01.01-.02.02-.03.02s-.02.01-.04.02a8.759,8.759,0,0,1-13.82-4.95c-1.62-5.29-.94-10.98,2.08-17.38a114.756,114.756,0,0,1,8.04-13.61A118.811,118.811,0,0,0,594,54.89c3.75-7.73,4.37-13.99,1.86-18.59a12.241,12.241,0,0,0-8.98-5.94,16.01,16.01,0,0,0-11.95,3.25c-4.95,3.98-8.44,9.38-11.88,15.02-1.7,2.78-3.44,6.41-5.13,9.91-.17.36-.34.72-.51,1.07.68-3.7.7-7.93-1.4-11.26a7.04,7.04,0,0,0-4.91-3.45c-2.91-.49-6.65.83-10.01,3.52-4.7,3.76-7.66,9.44-9.48,13.38-6.6,14.33-12.42,15.14-12.47,15.14a.636.636,0,0,0-.18.06,8.156,8.156,0,0,1-6.54.19c-7.7-3.04-7.12-13.32-5.76-21.93.3-1.86.79-3.73,1.26-5.54.43-1.63.87-3.31,1.17-5a.5.5,0,0,0-.41-.58.512.512,0,0,0-.58.4v.01c-.48,2.7-2.42,5.47-5.92,8.49a.01.01,0,0,0-.01.01l-.24.21c-2.3,2-4.68,4.06-6.95,6.17-1.35,1.25-3.07,2.87-4.77,4.62-.16-.31-.33-.61-.49-.89-1.46-2.58-3.12-5.08-4.73-7.5-1.49-2.24-3.04-4.55-4.4-6.91-.49-.84-.99-1.68-1.5-2.54-2.11-3.52-4.29-7.16-5.41-10.9a19.37,19.37,0,0,1-.82-4.4c.57-1.13,1.1-2.18,1.6-3.15l.74-1.44a1.963,1.963,0,0,0,.23-1.73.952.952,0,0,0-.91-.6c-1.03.06-1.98,1.93-2.05,2.14a12.153,12.153,0,0,0-.62,4.57c-1.7,3.4-3.7,7.5-5.92,12.04-10.1,20.71-25.36,52.01-30.34,52.73a.6.6,0,0,1-.53-.18c-1.46-3.82,3.75-19.2,5.9-24.85a.5.5,0,0,0-.89-.44c-.81,1.32-1.6,2.65-2.39,3.98-3.28,5.48-6.67,11.14-10.5,16.38l-.58.79c-2.27,3.12-4.61,6.35-7.78,8.53-4.41,3.05-10.88,3.8-14.15-.82-3.77-5.33-2.28-13.26-.84-18.77.03-.12.06-.23.09-.34a9.138,9.138,0,0,0,.99-.62c1.75-1.29,3.43-2.8,3.9-5.07a1.581,1.581,0,0,0-.51-1.75,1.4,1.4,0,0,0-.97-.18,3.386,3.386,0,0,0-2.15,1.41,12.1,12.1,0,0,0-2.01,5.03c-.03.16-.07.32-.11.48a17.38,17.38,0,0,1-7,1.06H396c-.63-3.41-4.1-6.19-7.58-7.07a9.489,9.489,0,0,0-8.04,1.49,4.36,4.36,0,0,0-1.68,2.2,2.143,2.143,0,0,0,.26,1.9c1.04,1.54,4.06,2.02,6.24,2.24a66.616,66.616,0,0,0,7.03.22h2.1l.53.01h.24c0,.13,0,.26-.01.4a9.086,9.086,0,0,1-.86,3.03,36.794,36.794,0,0,1-17.89,18,19.549,19.549,0,0,1-7.21,1.88,7.618,7.618,0,0,1-4.74-1.21,8.7,8.7,0,0,1-2.39-2.8,23.04,23.04,0,0,1-3.12-11.3c6.38-9.72,13.44-22.81,19.57-34.17.94-1.74,1.85-3.43,2.72-5.04a147.269,147.269,0,0,0,10.2-22.2,37.852,37.852,0,0,0,2.42-12.26c-.02-2.48-.96-4.17-2.51-4.52-1.6-.37-2.99.87-3.89,1.83-5.1,5.39-9.58,12.26-14.11,21.63a171.537,171.537,0,0,0-12.52,35.34l-.17.76c-1.39,5.87-2.88,12.21-2.73,18.32-3.67,5.58-7.11,10.01-9.92,12.2a8.744,8.744,0,0,1-13.7-5.04c-1.62-5.29-.94-10.97,2.08-17.38a114.2,114.2,0,0,1,8.04-13.61,121.109,121.109,0,0,0,7.84-13.18c3.75-7.74,4.38-13.99,1.87-18.59a12.271,12.271,0,0,0-8.99-5.95,15.968,15.968,0,0,0-11.95,3.25c-4.94,3.98-8.44,9.38-11.88,15.02-1.7,2.79-3.44,6.41-5.12,9.92-.17.36-.34.71-.52,1.07.69-3.7.71-7.93-1.4-11.27a7.738,7.738,0,0,0-4.98-3.65,9.536,9.536,0,0,0-7.25,1.77c-2.13,1.46-4.9,4.52-12.12,15.27-1.42,2.08-2.84,4.26-4.2,6.37-4.12,6.36-8.38,12.94-13.7,18.23-3.74,3.72-13.46,11.83-22.98,6.84-4.28-2.24-6.41-6.26-7.38-10.51,10.21-5.22,19.86-10.59,25.86-18.85,2.28-3.12,4.04-8.25,1.53-12.39-1.9-3.14-6.13-4.85-10.28-4.15-3.34.57-6.62,2.49-9.75,5.72a32.737,32.737,0,0,0-9.04,21.65,33.964,33.964,0,0,0,.57,7.54C170.54,124.9,90,138.79,1.1,120.35l-.1.49v.51a363.257,363.257,0,0,0,73.66,7.78,319.276,319.276,0,0,0,40.92-2.6A296.89,296.89,0,0,0,240.72,80.11c1.05,4.37,3.31,8.49,7.8,10.84a14.518,14.518,0,0,0,6.82,1.7c7.57,0,14.32-5.73,17.33-8.72,5.39-5.37,9.68-11.99,13.83-18.4,1.36-2.1,2.77-4.28,4.18-6.35h.01c7.13-10.62,9.83-13.61,11.86-15a8.474,8.474,0,0,1,6.47-1.62,6.775,6.775,0,0,1,4.35,3.2c3.14,4.99,1.14,12.28-.33,16.18l-.8,2.12c-1.55,4.13-3.15,8.41-4.94,12.54a.5.5,0,0,0,.26.66.448.448,0,0,0,.2.04.486.486,0,0,0,.45-.3c1.81-4.16,3.41-8.44,4.97-12.59l.79-2.11c.1-.28.21-.56.31-.87.87-1.65,1.78-3.55,2.75-5.57,1.67-3.48,3.4-7.09,5.08-9.83,3.39-5.56,6.83-10.88,11.65-14.76a14.955,14.955,0,0,1,11.18-3.04,11.24,11.24,0,0,1,8.25,5.44c2.35,4.3,1.71,10.24-1.89,17.67a117.876,117.876,0,0,1-7.78,13.07,115.785,115.785,0,0,0-8.1,13.74c-3.14,6.64-3.83,12.56-2.14,18.1a10.009,10.009,0,0,0,6.77,7.06,9.406,9.406,0,0,0,2.64.37,9.982,9.982,0,0,0,5.74-1.82.076.076,0,0,0,.04-.02c.02-.01.04-.03.06-.04.04-.04.09-.06.13-.1a.463.463,0,0,0,.07-.07c2.69-2.16,5.85-6.12,9.22-11.14a23.532,23.532,0,0,0,3.19,10.42,10.05,10.05,0,0,0,2.67,3.11,8.4,8.4,0,0,0,4.88,1.4c.17,0,.33-.01.49-.01a20.453,20.453,0,0,0,7.57-1.97,37.848,37.848,0,0,0,18.4-18.51,10.154,10.154,0,0,0,.94-3.37c.01-.15.01-.3.01-.45a20.009,20.009,0,0,0,6.66-.86c-1.46,5.68-2.82,13.66,1.09,19.19,3.64,5.15,10.73,4.39,15.54,1.06,3.31-2.28,5.7-5.57,8.02-8.76l.58-.79c3.76-5.16,7.1-10.71,10.32-16.09-2.2,6.44-5.57,17.44-4.15,20.88a.037.037,0,0,0,.01.03v.02c.02.03.04.05.05.07a.251.251,0,0,1,.04.07c.01,0,.01.01.02.01s.01.02.02.02a1.561,1.561,0,0,0,1.17.51,1.141,1.141,0,0,0,.26-.02c5.09-.73,17.1-24.55,31.1-53.27,1.92-3.92,3.67-7.51,5.2-10.61a21.979,21.979,0,0,0,.69,3.03c1.16,3.85,3.37,7.55,5.51,11.13.51.85,1.01,1.69,1.49,2.52,1.38,2.39,2.94,4.72,4.44,6.97,1.6,2.4,3.25,4.88,4.69,7.43.21.36.42.75.62,1.16l-.65.69a33.926,33.926,0,0,0-2.32,2.59,5.332,5.332,0,0,0-1.26,3A2.966,2.966,0,0,0,486.97,74a2.666,2.666,0,0,0,2.48-.24,5.726,5.726,0,0,0,2.25-4.13,9.9,9.9,0,0,0-1.03-4.62c1.77-1.84,3.58-3.54,4.99-4.85,2.26-2.1,4.63-4.15,6.93-6.15l.32-.28c.01-.01.01-.02.02-.03a25.3,25.3,0,0,0,4.03-4.27.076.076,0,0,1-.01.04c-.48,1.83-.97,3.72-1.28,5.64-.91,5.77-3.04,19.28,6.38,23.01a9.19,9.19,0,0,0,7.28-.19c.87-.15,6.69-1.61,13.19-15.71,1.78-3.85,4.66-9.39,9.2-13.02,3.14-2.52,6.58-3.76,9.22-3.31a6.088,6.088,0,0,1,4.22,2.99c3.14,4.98,1.14,12.28-.33,16.18l-.78,2.09c-1.56,4.14-3.16,8.42-4.96,12.57a.507.507,0,0,0,.26.66.477.477,0,0,0,.2.04.5.5,0,0,0,.46-.3c1.8-4.17,3.41-8.47,4.97-12.62l.79-2.09c.1-.27.2-.56.31-.86.86-1.65,1.78-3.56,2.75-5.57,1.67-3.49,3.4-7.09,5.07-9.83,3.39-5.56,6.84-10.88,11.65-14.77a14.96,14.96,0,0,1,11.18-3.03,11.229,11.229,0,0,1,8.25,5.43c2.35,4.3,1.72,10.25-1.88,17.68a122.011,122.011,0,0,1-7.78,13.07,114.376,114.376,0,0,0-8.11,13.73c-3.13,6.64-3.83,12.56-2.13,18.1a10.011,10.011,0,0,0,6.76,7.07,9.83,9.83,0,0,0,2.64.36,9.971,9.971,0,0,0,5.96-1.96c1.62-.91,7.81-6.74,14.81-14.36a15.192,15.192,0,0,0,2.45,1.6c10.11,5.3,20.26-3.14,24.15-7.02a95.214,95.214,0,0,0,18.45-25.7c2.25-4.34,4.53-8.87,6.76-13.37s4.39-8.94,6.43-13.12c1.85-3.79,3.54-7.26,5.04-10.28.78,5.3,4.09,10.44,6.91,14.83l.89,1.38c2.89,4.55,5.94,9.06,9.07,13.43.29.4.57.81.86,1.22l.21.31c.9,1.31,1.81,2.64,2.7,4.01-.56.82-1.13,1.68-1.68,2.61-.73,1.22-1.73,2.9-1.1,4.51a2.757,2.757,0,0,0,1.67,1.62,2.7,2.7,0,0,0,.85.14,3.251,3.251,0,0,0,1.59-.45,3.712,3.712,0,0,0,1.86-2.32c.43-1.71-.43-3.6-1.23-4.89-.25-.41-.5-.81-.76-1.21.08-.11.16-.23.24-.35l.48-.69a86,86,0,0,0,7.2-12.25c0-.02,0-.03.01-.04l2.11-4.34c1.53-3.15,3.09-6.37,4.45-9.11a20.21,20.21,0,0,0,.68,3c1.15,3.86,3.37,7.56,5.51,11.13.51.85,1.01,1.69,1.49,2.52,1.38,2.39,2.93,4.72,4.43,6.97,1.6,2.4,3.26,4.89,4.7,7.43.21.37.42.76.62,1.17l-.65.69a31.939,31.939,0,0,0-2.32,2.59,5.278,5.278,0,0,0-1.26,3,2.975,2.975,0,0,0,1.73,2.91,2.846,2.846,0,0,0,1.02.2,2.759,2.759,0,0,0,1.46-.44,5.763,5.763,0,0,0,2.25-4.13,9.909,9.909,0,0,0-1.03-4.63c1.09-1.16,2.17-2.34,3.25-3.51,2.1-2.28,4.27-4.63,6.47-6.85,3.16-3.18,6.98-6.42,11.48-6.42h.02c3.2.01,6.47,2.3,9.63,4.51a39.222,39.222,0,0,0,4.58,2.92,62.815,62.815,0,0,0,16.03,5.5,61.077,61.077,0,0,0,33.15-2.47c7.46-2.76,14.35-6.63,21.01-10.37,9.73-5.47,19.79-11.12,31.54-13.17a54.753,54.753,0,0,1,26.02,1.81c-.14.09-.28.16-.41.25a14.8,14.8,0,0,0-3.14,2.65,4.552,4.552,0,0,0-1.25,3.39,3.653,3.653,0,0,0,1.56,2.51,8.225,8.225,0,0,0,5,1.47c3.05-.06,5.66-1.26,8.28-2.59a11.983,11.983,0,0,1,4.03-1.19c.11.06.2.11.29.15a2.9,2.9,0,0,1,.33.2c5.82,3.69,11.88,7.74,16.44,13.1a16.96,16.96,0,0,1,2.92,4.53,5.3,5.3,0,0,1-.06,4.38,2.147,2.147,0,0,1-1.84.95c-2.37.09-4.85-1.82-6.66-3.21-1.32-1.02-2.5-2.12-3.77-3.31a.5.5,0,0,0-.69.73,68.721,68.721,0,0,1,5.13,5.26c.26.29.51.58.78.88a21.115,21.115,0,0,1,3.63,4.99,5.322,5.322,0,0,1,.39,3.96,2.218,2.218,0,0,1-1.43,1.25,5.258,5.258,0,0,1-2.39.15c-4.49-.59-8.3-4.01-11.74-7.11-.03-.03-.06-.05-.09-.08a.01.01,0,0,0-.01-.01.471.471,0,0,0-.68.06.541.541,0,0,0,.01.67v.01a.265.265,0,0,0,.06.05v.01a.265.265,0,0,1,.06.05,54.66,54.66,0,0,1,4.89,4.87c1.12,1.31,4.11,4.79,3.53,6.99a2.513,2.513,0,0,1-1.81,1.65,8.235,8.235,0,0,1-5.7-.44,26.6,26.6,0,0,1-7.16-5.23.01.01,0,0,1-.01-.01.514.514,0,0,0-.71.03.5.5,0,0,0,.03.71,12.985,12.985,0,0,1,3.55,4.86,3.362,3.362,0,0,1-.21,2.99,2.553,2.553,0,0,1-2.1,1.1c-2.52.14-5.13-1.9-7.11-3.68a.461.461,0,0,0-.27-.11,6.424,6.424,0,0,0,0-1.24c-.3-2.8-2.35-4.91-4.68-4.91a2.681,2.681,0,0,0-.4.02,3.93,3.93,0,0,0-2.14.94c1.77-4.09,1.38-8.18-1.04-9.48a3.577,3.577,0,0,0-1.67-.4,7.522,7.522,0,0,0-4.95,2.48c1.77-4.23,1.39-8.39-1.11-9.83a3.909,3.909,0,0,0-1.97-.51,8.07,8.07,0,0,0-4.87,2.13c1.51-3.31,1.27-6.64-.68-7.76a2.96,2.96,0,0,0-1.49-.39c-2.06,0-4.59,1.82-6.26,4.71-2.1,3.65-2.05,7.62.13,8.87a2.9,2.9,0,0,0,1.48.39,5.607,5.607,0,0,0,3.11-1.17c-2.48,4.68-2.32,9.62.45,11.22a3.954,3.954,0,0,0,1.97.5c1.9,0,4.09-1.18,6-3.18-1.57,3.96-1.13,7.83,1.22,9.08a3.4,3.4,0,0,0,1.66.41c2.05,0,4.45-1.56,6.31-4.09a6.169,6.169,0,0,0-.11,1.93c.3,2.8,2.35,4.91,4.68,4.91a2.815,2.815,0,0,0,.41-.02,4.554,4.554,0,0,0,3.76-3.57c2.03,1.8,4.63,3.75,7.33,3.75h.3a3.586,3.586,0,0,0,2.88-1.55,4.359,4.359,0,0,0,.31-3.88,8.334,8.334,0,0,0-.52-1.15,19.377,19.377,0,0,0,3.48,2.05,9.228,9.228,0,0,0,6.44.46,3.51,3.51,0,0,0,2.44-2.33c.56-2.13-1.18-4.79-3.02-7.05a15.026,15.026,0,0,0,5.89,2.27,6.378,6.378,0,0,0,2.84-.19,3.188,3.188,0,0,0,2.02-1.8c.81-1.86-.1-4.12-.4-4.77a21.775,21.775,0,0,0-3.79-5.25c-.08-.09-.16-.18-.23-.27a8.87,8.87,0,0,0,4.73,1.59,3.166,3.166,0,0,0,2.65-1.4c.96-1.48.75-3.78.15-5.29a17.827,17.827,0,0,0-3.09-4.82c-4.49-5.27-10.35-9.27-16.04-12.9a17.058,17.058,0,0,1,1.86.12.5.5,0,0,0,.12-.99,14.22,14.22,0,0,0-8.24,1.27c-2.61,1.32-5,2.42-7.84,2.48a6.98,6.98,0,0,1-4.38-1.27,2.685,2.685,0,0,1-1.18-1.82,3.606,3.606,0,0,1,1.03-2.64,13.118,13.118,0,0,1,2.92-2.45,34.148,34.148,0,0,1,15.96-5.84c6.1-.49,12.3,1.38,18.12,3.34a93.914,93.914,0,0,1,19.15,9.25c7.88,4.8,16.57,9.41,26.74,10.55a52.143,52.143,0,0,0,5.88.33,56.377,56.377,0,0,0,18.95-3.33c.66-.22,1.34-.48,2.01-.77q.51-.21,1.02-.45c.34-.16.69-.32,1.03-.49.23-.11.46-.23.69-.35l.69-.36c.53-.28,1.06-.58,1.59-.89.86-.51,1.73-1.05,2.6-1.62.46-.3.93-.62,1.4-.94.89-.61,1.78-1.26,2.67-1.92.36-.27.71-.54,1.06-.82l1.07-.83c.26-.22.53-.43.79-.64.53-.43,1.06-.86,1.58-1.3s1.04-.89,1.56-1.34c.26-.22.52-.45.78-.68.51-.46,1.02-.91,1.53-1.37.26-.23.51-.46.76-.7.76-.69,1.5-1.4,2.24-2.1q2.2-2.115,4.26-4.22c.45-.46.9-.92,1.34-1.38s.88-.92,1.3-1.37.85-.9,1.26-1.34c2.87-3.09,5.32-5.91,7.18-8.11q.39-.465.75-.9c.48-.57.91-1.09,1.28-1.54-.34,1.15-.67,2.43-1.02,3.9a55.093,55.093,0,0,0-1.49,9.94c-.31,6.28.66,11.05,2.97,14.58,2.56,3.88,7.1,6.16,12.8,6.39a39.078,39.078,0,0,0,14.79-2.23c-.17.47-.34.95-.5,1.44-1.08,3.42-2.06,6.93-3.01,10.33-1.27,4.57-2.59,9.31-4.19,13.87-1.37,3.92-2.86,8.17-4.63,12.43-1.79,1.73-3.57,3.47-5.32,5.23l-1.42,1.41c-2.52,2.52-5.12,5.12-7.6,7.75-.52.55-1.05,1.1-1.57,1.65-1.39,1.44-2.83,2.94-4.14,4.52-.08.11-.2.24-.32.38-1.19,1.38-2.22,2.71-1.72,3.68a1.856,1.856,0,0,0,1.77.75c.23,0,.46-.02.68-.04a11.041,11.041,0,0,0,6.3-2.87c6.48-5.89,10.84-13.89,14.18-21.89,4.26-4.1,8.6-8.14,12.84-12.09,4.41-4.12,8.98-8.38,13.39-12.64,4.57-4.42,9.14-9.04,13.57-13.73,2.43-2.56,5.02-5.33,7.51-8.15,1.05-1.19,1.48-1.71,1.87-2.21a22.063,22.063,0,0,0-.38,10.36,14.649,14.649,0,0,0,4.03,7.53,13.172,13.172,0,0,0,7.31,3.41,13.787,13.787,0,0,0,1.82.11,14.492,14.492,0,0,0,6.76-1.68c3.91-2.1,6.94-5.98,9.54-12.21a98.428,98.428,0,0,0,4.86-15.97,25.267,25.267,0,0,0,5.36-3.69c.01-.01.01-.02.02-.03a33.684,33.684,0,0,0,2.89-3.1c.58-.67,1.15-1.34,1.76-1.98,2.33-2.44,4.48-3.68,6.39-3.68h.11a3.683,3.683,0,0,1,2.63,1.12c1.7,1.81,1.19,5.04.24,7.25-1.51,3.49-4.29,6.2-6.98,8.82a35.807,35.807,0,0,0-6.33,7.38c-2.6,4.48-2.51,10.21.23,13.95,2.37,3.23,6.43,5.18,11.13,5.33.2.01.4.01.6.01,4.93,0,9.63-1.99,12.4-5.28,3.17-3.77,4.07-8.75,4.94-13.56.26-1.44.5-2.8.81-4.13.21-.93.39-1.86.58-2.79a44.275,44.275,0,0,1,1.37-5.65c.83-2.44,2.78-5.96,4.52-6.12.75-.08,1.48.5,2.18,1.71a45.764,45.764,0,0,1,2.74,6.21c.36.93.71,1.86,1.09,2.78,1.54,3.7,4.22,8.79,9.7,10.19,4.36,1.12,8.72-.56,11.6-2.17a163.859,163.859,0,0,0,14.72-9.68c6.36-4.52,12.93-9.19,20.18-12.41,18.33-8.14,38.83-10.14,58.67-12.08,1.76-.17,3.51-.34,5.26-.52,26.33-2.63,52.08-4.92,77.58-3.89,15.77.63,39.14,2.39,59.95,10.32a.567.567,0,0,0,.18.03V11.57C1419.34,3.64,1395.95,1.88,1380.16,1.25ZM1070.5,34.54a54.286,54.286,0,0,1,13.75-12.96,36.471,36.471,0,0,1,4.6-2.55,4.479,4.479,0,0,1,.52-.22c-2.57,6.77-8.87,13.61-13.8,18.24a43.293,43.293,0,0,1-11.63,8A55.863,55.863,0,0,1,1070.5,34.54ZM706.23,24.86c.13-.36.87-1.42,1.12-1.44.09.19-.06.53-.22.84l-.74,1.44c-.2.39-.42.81-.65,1.27A9.784,9.784,0,0,1,706.23,24.86Zm-36.16-8.72c.13-.36.87-1.42,1.12-1.44.09.2-.06.54-.22.84l-.74,1.44c-.24.46-.48.93-.73,1.43A12.364,12.364,0,0,1,670.07,16.14ZM473.41,26.46c.13-.36.87-1.42,1.12-1.44.09.2-.06.54-.22.85l-.74,1.44c-.21.4-.42.82-.65,1.26A10.411,10.411,0,0,1,473.41,26.46Zm-67.45,47.7a2.5,2.5,0,0,1,1.5-1.04c.04,0,.08-.01.12-.01a.4.4,0,0,1,.18.04c.11.07.14.36.07.71-.38,1.83-1.68,3.11-3.51,4.46-.03.02-.05.04-.07.05A10.271,10.271,0,0,1,405.96,74.16ZM394.87,80.1l-.53-.01h-2.11a64.5,64.5,0,0,1-6.93-.22c-1.14-.11-4.61-.46-5.51-1.8a1.181,1.181,0,0,1-.13-1.06,3.392,3.392,0,0,1,1.32-1.68,8.51,8.51,0,0,1,7.2-1.32c3.08.78,6.16,3.17,6.8,6.09h-.11ZM240.92,71.56a31.792,31.792,0,0,1,8.76-20.99c2.97-3.07,6.07-4.89,9.2-5.42a9.879,9.879,0,0,1,1.71-.15,8.781,8.781,0,0,1,7.55,3.83c2.11,3.48.77,8.18-1.49,11.29-5.82,8.01-15.25,13.3-25.25,18.42A33.032,33.032,0,0,1,240.92,71.56Zm120.64-.86.18-.76A170.957,170.957,0,0,1,374.18,34.8c4.48-9.27,8.91-16.06,13.93-21.37a4.193,4.193,0,0,1,2.6-1.59,2.086,2.086,0,0,1,.35.04c1.26.29,1.72,2.03,1.73,3.56a37.2,37.2,0,0,1-2.36,11.92,146.191,146.191,0,0,1-10.14,22.05c-.87,1.62-1.78,3.31-2.72,5.05-5.6,10.37-12.44,23.06-18.71,32.79C358.96,81.72,360.31,76.02,361.56,70.7ZM490.7,69.57a4.794,4.794,0,0,1-1.79,3.35,1.631,1.631,0,0,1-1.57.15,1.994,1.994,0,0,1-1.1-1.94,4.3,4.3,0,0,1,1.05-2.42,31.478,31.478,0,0,1,2.25-2.51l.39-.41A8.571,8.571,0,0,1,490.7,69.57ZM605.21,89.11c-3.37-3.15-5.04-8.09-5.1-14.99a32.356,32.356,0,0,1,4.59-17.16c2.62-4.28,7.68-9.66,13.31-10.74a10.668,10.668,0,0,1,1.93-.18,9.841,9.841,0,0,1,6.03,2.11,5.958,5.958,0,0,1,2.57,5.68C627.77,62.28,615.72,77.6,605.21,89.11Zm86.18-25.49A2.719,2.719,0,0,1,690,65.33a2.018,2.018,0,0,1-1.62.22,1.767,1.767,0,0,1-1.06-1.03c-.45-1.16.37-2.53,1.08-3.72.43-.72.89-1.43,1.36-2.13.18.28.35.55.52.83C690.98,60.63,691.73,62.26,691.39,63.62Zm32.13,4.35a4.773,4.773,0,0,1-1.79,3.34,1.649,1.649,0,0,1-1.58.16,2.011,2.011,0,0,1-1.09-1.94,4.328,4.328,0,0,1,1.05-2.43,31.472,31.472,0,0,1,2.25-2.51l.38-.4A8.416,8.416,0,0,1,723.52,67.97Zm135.17-.72a1.954,1.954,0,0,1-.98-.25,3.118,3.118,0,0,1-1.17-2.69,9.68,9.68,0,0,1,1.41-4.82c1.43-2.47,3.65-4.21,5.39-4.21a2.02,2.02,0,0,1,.99.25c1.63.95,1.52,4.45-.25,7.51C862.65,65.51,860.44,67.25,858.69,67.25Zm5.53,10.55a2.893,2.893,0,0,1-1.47-.37c-1.07-.62-1.68-1.98-1.7-3.83a13.161,13.161,0,0,1,1.91-6.56c1.95-3.37,5-5.74,7.42-5.74a2.873,2.873,0,0,1,1.47.38c1.08.62,1.68,1.98,1.71,3.83a13.1,13.1,0,0,1-1.91,6.55C869.7,75.44,866.64,77.8,864.22,77.8Zm8.88,6.31a2.466,2.466,0,0,1-1.19-.29c-2.13-1.14-2.17-5.39-.08-9.29,1.69-3.16,4.4-5.37,6.58-5.37a2.466,2.466,0,0,1,1.19.29c2.13,1.13,2.17,5.39.08,9.29C877.99,81.9,875.29,84.11,873.1,84.11Zm11.18,2.74c-.1.01-.2.01-.3.01-1.83,0-3.44-1.76-3.68-4.02-.26-2.41,1.12-4.54,3.06-4.75.1-.01.2-.01.3-.01,1.83,0,3.45,1.76,3.68,4.02C887.6,84.51,886.22,86.64,884.28,86.85Zm151.48,19.83a10,10,0,0,1-5.73,2.62c-1.03.1-1.4-.08-1.46-.18-.15-.3.38-1.16,1.59-2.57.13-.15.24-.28.34-.39,1.27-1.56,2.7-3.04,4.08-4.47.52-.55,1.05-1.1,1.57-1.65,2.48-2.63,5.07-5.22,7.58-7.73l1.42-1.42q1.785-1.77,3.59-3.54C1045.57,94.49,1041.51,101.45,1035.76,106.68Zm97.28-79.92c-.06.27-.12.54-.18.82a18.766,18.766,0,0,1-7.71,1.91,7.348,7.348,0,0,1-3.39-.6,4.611,4.611,0,0,1-2.46-3.4,7.533,7.533,0,0,1,1.7-6.12,8.813,8.813,0,0,1,6.52-2.77,5.619,5.619,0,0,1,.58.02,6.182,6.182,0,0,1,3.92,1.51,6,6,0,0,1,1.61,4.01A17.8,17.8,0,0,1,1133.04,26.76Z" fill="#f29100" stroke="#b1b1b1" stroke-linecap="round" stroke-linejoin="round" stroke-miterlimit="22.926" stroke-width="2"/>
    <path id="Caminho_13" data-name="Caminho 13" d="M1132.02,18.13a6.182,6.182,0,0,0-3.92-1.51,5.619,5.619,0,0,0-.58-.02,8.813,8.813,0,0,0-6.52,2.77,7.533,7.533,0,0,0-1.7,6.12,4.612,4.612,0,0,0,2.46,3.4,7.348,7.348,0,0,0,3.39.6,18.766,18.766,0,0,0,7.71-1.91c.06-.28.12-.55.18-.82a17.8,17.8,0,0,0,.59-4.62A6,6,0,0,0,1132.02,18.13Zm-1.33,7.32c-.04.17-.08.35-.12.53a12.142,12.142,0,0,1-4.98,1.23,4.762,4.762,0,0,1-2.19-.39,2.98,2.98,0,0,1-1.59-2.2,4.848,4.848,0,0,1,1.1-3.95,5.7,5.7,0,0,1,4.21-1.79c.12,0,.25,0,.37.01a3.992,3.992,0,0,1,2.53.98,3.9,3.9,0,0,1,1.04,2.59A10.6,10.6,0,0,1,1130.69,25.45Z" fill="#fff" stroke="#b1b1b1" stroke-miterlimit="22.926" stroke-width="0.75"/>
    <path id="Caminho_14" data-name="Caminho 14" d="M1088.85,19.03a36.472,36.472,0,0,0-4.6,2.55,54.287,54.287,0,0,0-13.75,12.96,55.863,55.863,0,0,0-6.56,10.51,43.293,43.293,0,0,0,11.63-8c4.93-4.63,11.23-11.47,13.8-18.24A4.479,4.479,0,0,0,1088.85,19.03Zm-13.06,16.96a34.078,34.078,0,0,1-9.22,6.34,44.717,44.717,0,0,1,5.2-8.34,43.228,43.228,0,0,1,10.9-10.28,28.8,28.8,0,0,1,3.65-2.02,2.752,2.752,0,0,1,.41-.17C1084.7,26.9,1079.7,32.32,1075.79,35.99Z" fill="#fff" stroke="#b1b1b1" stroke-miterlimit="22.926" stroke-width="0.25"/>
    <path id="Caminho_15" data-name="Caminho 15" d="M707.13,24.26l-.74,1.44c-.2.39-.42.81-.65,1.27a9.784,9.784,0,0,1,.49-2.11c.13-.36.87-1.42,1.12-1.44C707.44,23.61,707.29,23.95,707.13,24.26Z" fill="#fff"/>
    <path id="Caminho_16" data-name="Caminho 16" d="M670.97,15.54l-.74,1.44c-.24.46-.48.93-.73,1.43a12.369,12.369,0,0,1,.57-2.27c.13-.36.87-1.42,1.12-1.44C671.28,14.9,671.13,15.24,670.97,15.54Z" fill="#fff"/>
    <path id="Caminho_17" data-name="Caminho 17" d="M625.97,48.15a9.841,9.841,0,0,0-6.03-2.11,10.668,10.668,0,0,0-1.93.18c-5.63,1.08-10.69,6.46-13.31,10.74a32.356,32.356,0,0,0-4.59,17.16c.06,6.9,1.73,11.84,5.1,14.99,10.51-11.51,22.56-26.83,23.33-35.28A5.957,5.957,0,0,0,625.97,48.15Zm-.94,7.67c-.62,6.79-10.3,19.09-18.74,28.34-2.71-2.53-4.05-6.5-4.1-12.04a26,26,0,0,1,3.69-13.78c2.1-3.44,6.17-7.76,10.69-8.63a8.2,8.2,0,0,1,1.55-.14,7.9,7.9,0,0,1,4.84,1.69A4.755,4.755,0,0,1,625.03,55.82Z" fill="#fff" stroke="#b1b1b1" stroke-miterlimit="22.926" stroke-width="1"/>
    <path id="Caminho_18" data-name="Caminho 18" d="M474.31,25.87l-.74,1.44c-.21.4-.42.82-.65,1.26a10.411,10.411,0,0,1,.49-2.11c.13-.36.87-1.42,1.12-1.44C474.62,25.22,474.47,25.56,474.31,25.87Z" fill="#fff"/>
    <path id="Caminho_19" data-name="Caminho 19" d="M407.76,73.15a.4.4,0,0,0-.18-.04c-.04,0-.08.01-.12.01a2.5,2.5,0,0,0-1.5,1.04,10.27,10.27,0,0,0-1.71,4.21c.02-.01.04-.03.07-.05,1.83-1.35,3.13-2.63,3.51-4.46C407.9,73.51,407.87,73.22,407.76,73.15Zm-.36,1.17c-.29,1.38-1.27,2.35-2.66,3.37a.176.176,0,0,1-.05.04,7.9,7.9,0,0,1,1.29-3.19,1.915,1.915,0,0,1,1.14-.78c.03,0,.06-.01.09-.01a.42.42,0,0,1,.14.03C407.43,73.83,407.45,74.05,407.4,74.32Z" fill="#fff"/>
    <path id="Caminho_20" data-name="Caminho 20" d="M388.18,74.01a8.51,8.51,0,0,0-7.2,1.32,3.392,3.392,0,0,0-1.32,1.68,1.181,1.181,0,0,0,.13,1.06c.9,1.34,4.37,1.69,5.51,1.8a64.5,64.5,0,0,0,6.93.22h2.11l.53.01h.11C394.34,77.18,391.26,74.79,388.18,74.01Zm4.53,5.19-.38-.01h-1.51a45.906,45.906,0,0,1-4.96-.16c-.82-.08-3.3-.33-3.94-1.29a.837.837,0,0,1-.09-.76,2.473,2.473,0,0,1,.94-1.2,6.061,6.061,0,0,1,5.15-.94c2.2.56,4.41,2.27,4.86,4.36h-.07Z" fill="#fff" stroke="#b1b1b1" stroke-miterlimit="22.926" stroke-width="0.25"/>
    <path id="Caminho_21" data-name="Caminho 21" d="M391.06,11.88a2.085,2.085,0,0,0-.35-.04,4.193,4.193,0,0,0-2.6,1.59c-5.02,5.31-9.45,12.1-13.93,21.37a170.957,170.957,0,0,0-12.44,35.14l-.18.76c-1.25,5.32-2.6,11.02-2.7,16.55,6.27-9.73,13.11-22.42,18.71-32.79.94-1.74,1.85-3.43,2.72-5.05a146.191,146.191,0,0,0,10.14-22.05,37.2,37.2,0,0,0,2.36-11.92C392.78,13.91,392.32,12.17,391.06,11.88Zm-5.46,20.1a205.384,205.384,0,0,1-9.01,18.9q-3.57,6.96-7.22,13.89-1.845,3.51-3.71,7.01c-.62,1.17-1.24,2.33-1.87,3.5-.56,1.05-1.93,3.46-1.93,3.46a142.17,142.17,0,0,1,4.81-20.14c3.77-12.57,8.6-25.47,17.3-35.52.79-.91,2-2.77,3.38-2.77a2.477,2.477,0,0,1,.27.03C389.59,20.66,387.62,26.81,385.6,31.98Z" fill="#fff" stroke="#b1b1b1" stroke-miterlimit="22.926" stroke-width="1"/>
    <path id="Caminho_22" data-name="Caminho 22" d="M268.14,48.83A8.781,8.781,0,0,0,260.59,45a9.878,9.878,0,0,0-1.71.15c-3.13.53-6.23,2.35-9.2,5.42a31.792,31.792,0,0,0-8.76,20.99,33.03,33.03,0,0,0,.48,6.98c10-5.12,19.43-10.41,25.25-18.42C268.91,57.01,270.25,52.31,268.14,48.83Zm-4.1,11.66c-4.51,6.21-11.82,10.31-19.57,14.27a25.266,25.266,0,0,1-.37-5.41,24.644,24.644,0,0,1,6.79-16.27,13.2,13.2,0,0,1,7.13-4.2,7.392,7.392,0,0,1,1.33-.12,6.8,6.8,0,0,1,5.85,2.97C266.83,54.44,265.79,58.08,264.04,60.49Z" fill="#fff" stroke="#b1b1b1" stroke-miterlimit="22.926" stroke-width="1"/>
  </g>
</svg>
